<?xml version="1.0" standalone="no"?>
<!DOCTYPE svg PUBLIC "-//W3C//DTD SVG 20010904//EN"
 "http://www.w3.org/TR/2001/REC-SVG-20010904/DTD/svg10.dtd">
<svg version="1.0" xmlns="http://www.w3.org/2000/svg"
 width="40px" height="40px" viewBox="0 0 640.000000 674.000000"
 preserveAspectRatio="xMidYMid meet">

<g transform="translate(0.000000,674.000000) scale(0.100000,-0.100000)"
fill="white" stroke="none">
<path d="M3330 6573 c-27 -5 -142 -53 -150 -63 -6 -7 -19 -6 -48 4 -13 4 -28
3 -35 -2 -7 -6 -39 -18 -72 -27 -33 -10 -82 -29 -110 -43 l-49 -25 -53 18
c-43 15 -72 17 -170 12 -65 -3 -138 -13 -162 -21 -196 -70 -401 -311 -525
-620 -34 -83 -67 -227 -81 -351 -3 -23 10 -124 20 -154 6 -20 3 -21 -47 -21
-88 0 -308 -61 -349 -96 -8 -8 -21 -14 -29 -14 -32 0 -200 -119 -274 -195 -84
-86 -111 -123 -163 -226 -71 -142 -88 -304 -44 -427 l23 -63 -36 -39 c-37 -41
-70 -106 -61 -120 3 -5 1 -11 -5 -15 -6 -4 -10 -51 -10 -113 1 -95 5 -133 23
-207 3 -11 8 -33 12 -50 8 -32 64 -157 74 -165 4 -3 18 -26 31 -53 14 -26 41
-65 61 -87 20 -22 44 -51 53 -65 9 -14 23 -25 31 -25 7 0 16 -8 20 -17 9 -29
133 -116 221 -157 17 -7 67 -26 110 -41 104 -36 265 -45 375 -22 45 10 111 16
169 14 98 -2 105 0 213 54 45 23 58 24 51 4 -3 -8 -2 -20 2 -27 5 -7 7 -24 6
-38 -4 -31 51 -303 68 -345 7 -16 14 -37 15 -45 4 -30 17 -60 26 -60 5 0 9 -7
9 -15 0 -35 67 -141 127 -201 111 -111 301 -158 479 -119 117 25 260 83 369
148 53 32 183 122 206 144 l26 24 74 -38 c65 -33 82 -38 144 -38 59 1 82 6
148 37 226 107 425 368 468 614 15 89 0 177 -52 290 -11 22 -19 47 -19 55 -1
8 -7 31 -14 51 l-13 37 56 6 c74 8 202 40 248 61 102 47 183 120 218 197 33
69 35 191 5 269 -11 29 -20 59 -20 65 0 7 -13 41 -29 75 -16 35 -36 102 -46
150 l-17 87 31 45 c17 24 31 47 31 51 0 3 12 24 27 46 18 27 26 52 25 77 -1
23 10 60 27 97 41 85 54 141 47 203 -6 55 -56 171 -81 192 -8 7 -15 18 -15 25
0 7 -42 55 -92 105 -113 113 -122 120 -136 120 -7 0 -12 4 -12 9 0 19 -221
138 -317 170 -89 29 -111 34 -203 40 -60 4 -84 10 -83 18 4 18 -16 153 -24
166 -4 6 -8 23 -9 36 -3 28 -7 37 -54 134 -18 37 -37 67 -41 67 -5 0 -9 6 -9
14 0 8 -8 21 -18 28 -9 7 -22 23 -27 35 -15 33 -155 183 -172 183 -8 0 -12 4
-9 9 6 10 -124 111 -143 111 -6 0 -11 4 -11 9 0 24 -168 56 -230 44z m-83
-183 c67 -31 154 -82 183 -107 8 -8 28 -25 43 -38 15 -14 35 -25 43 -25 7 0
14 -6 14 -13 0 -7 14 -26 31 -43 65 -62 177 -246 194 -319 4 -17 13 -39 20
-50 17 -28 34 -102 41 -178 7 -73 12 -64 -88 -143 -32 -25 -70 -64 -86 -87
-64 -94 -131 -227 -150 -297 -33 -122 -33 -117 -5 -112 24 4 53 47 53 77 0 9
8 19 18 22 9 4 32 18 50 31 18 14 34 23 36 21 2 -2 -3 -22 -11 -44 -8 -22 -14
-49 -14 -60 1 -11 -6 -51 -14 -90 -22 -107 -25 -166 -8 -172 27 -10 39 21 67
167 20 104 35 156 53 184 14 22 38 61 54 87 15 26 65 85 111 131 46 46 93 96
104 112 l19 29 59 -17 c33 -10 96 -24 142 -31 86 -14 155 -44 265 -117 61 -40
209 -179 209 -196 0 -6 4 -12 8 -14 22 -9 81 -152 92 -222 18 -122 -9 -156
-54 -67 -14 27 -46 67 -71 89 -37 32 -56 41 -99 46 -64 8 -103 -7 -135 -53
-32 -44 -28 -68 12 -67 17 0 39 -3 48 -8 12 -5 18 1 25 26 7 22 16 33 29 33
25 0 39 -49 19 -66 -21 -17 -17 -38 10 -48 21 -9 72 -78 63 -87 -2 -2 -28 9
-58 26 -66 36 -108 38 -146 6 -24 -21 -27 -31 -28 -82 0 -52 3 -59 26 -73 23
-13 33 -13 69 -2 23 7 53 23 66 36 24 24 34 23 34 -6 0 -9 7 -19 15 -23 28
-11 16 -29 -15 -22 -29 5 -30 4 -30 -33 0 -34 -5 -42 -35 -61 -34 -21 -37 -21
-55 -5 -22 20 -59 17 -74 -7 -14 -23 0 -46 40 -67 16 -9 40 -26 54 -39 28 -26
77 -29 106 -7 29 22 41 18 54 -17 37 -101 44 -195 18 -246 -37 -72 -209 -105
-514 -100 -205 3 -210 3 -262 31 -55 28 -87 33 -111 18 -16 -10 -76 7 -151 44
-87 42 -97 49 -132 93 -49 61 -85 57 -80 -10 1 -10 -2 -18 -7 -18 -13 0 -51
36 -51 50 0 6 -6 10 -12 7 -8 -2 -12 -16 -10 -33 3 -32 90 -121 145 -147 18
-9 31 -18 30 -21 -7 -16 84 -104 126 -122 20 -8 56 -25 81 -37 24 -12 47 -22
50 -22 3 -1 39 -17 81 -38 41 -20 84 -38 95 -40 10 -2 30 -9 44 -14 14 -6 59
-18 100 -27 137 -31 151 -37 191 -77 21 -21 42 -39 47 -39 4 0 17 -15 30 -33
54 -80 15 -211 -123 -417 -124 -184 -269 -317 -383 -351 -51 -15 -63 -7 -35
24 28 30 92 159 101 205 9 43 -10 88 -43 96 -36 10 -86 6 -115 -9 -48 -25 -52
-83 -5 -71 41 10 49 -56 13 -107 -29 -42 -46 -55 -87 -66 -18 -6 -39 -18 -45
-27 -9 -11 -18 -14 -27 -8 -8 5 -22 7 -31 6 -10 -2 -53 13 -97 32 -43 20 -87
36 -98 36 -11 0 -32 14 -47 31 -25 28 -27 34 -16 60 7 15 18 34 26 40 24 20
16 36 -21 43 -60 12 -72 -1 -108 -115 -13 -41 -13 -49 2 -81 19 -42 64 -81
122 -107 50 -23 55 -20 -104 -57 -126 -29 -108 -29 -256 8 -55 14 -193 176
-220 261 -10 30 -10 41 0 53 10 13 10 17 -1 24 -9 6 -18 4 -23 -3 -6 -8 -7 -5
-3 6 4 12 -1 25 -14 35 -20 17 -55 134 -65 217 -3 22 -8 56 -11 75 -18 115 1
314 38 400 26 63 55 113 75 132 l23 21 -30 19 c-34 20 -72 23 -101 8 -18 -10
-98 -102 -129 -150 -8 -12 -26 -39 -40 -59 -30 -44 -53 -89 -79 -156 -10 -28
-37 -69 -60 -92 -23 -22 -41 -50 -41 -61 0 -36 -151 -167 -244 -213 -55 -26
-67 -25 -160 20 -44 22 -92 44 -106 50 -52 22 -239 148 -300 201 -259 230
-337 351 -316 493 l7 45 50 -34 c28 -19 56 -34 61 -34 6 0 8 -12 5 -26 -3 -19
3 -35 22 -56 22 -25 35 -30 69 -30 43 1 61 8 129 54 30 20 43 37 51 68 9 38 8
42 -14 57 -24 15 -27 15 -55 -6 -32 -24 -49 -20 -84 19 l-20 23 23 -7 c39 -13
24 12 -33 51 -30 21 -54 42 -55 46 0 5 -16 32 -35 61 -19 29 -35 57 -35 62 0
5 20 22 45 37 37 24 61 32 108 36 4 1 7 8 7 16 0 18 31 20 47 4 7 -7 17 -8 25
-3 7 5 19 9 27 9 8 0 19 13 24 29 9 26 7 32 -18 52 -32 26 -109 37 -159 23
-20 -6 -66 -30 -102 -55 -36 -25 -67 -44 -69 -42 -9 10 -7 48 4 83 27 82 148
215 322 355 169 136 287 203 447 256 85 28 116 30 163 10 19 -7 55 -17 81 -20
39 -6 52 -14 81 -50 41 -49 131 -100 214 -122 66 -17 311 -35 333 -24 8 4 50
10 94 14 43 4 88 14 100 22 13 8 25 12 28 9 3 -3 8 1 11 10 4 8 3 15 -1 16
-52 6 -81 5 -160 -3 -102 -10 -132 -1 -153 46 -6 12 -26 31 -45 41 -29 16 -34
23 -30 44 3 14 3 20 0 14 -7 -17 -24 -16 -43 1 -20 17 -142 66 -196 79 -22 4
-66 12 -97 16 -31 3 -61 10 -65 15 -15 15 -7 336 11 439 16 91 27 137 71 302
21 79 81 218 120 280 40 62 113 131 167 155 37 16 44 17 84 3 l44 -15 -51 -46
c-59 -53 -88 -95 -116 -172 -22 -58 -22 -99 -2 -137 10 -19 20 -23 60 -23 30
0 53 6 63 16 14 14 13 20 -14 68 -17 29 -30 62 -30 73 0 19 68 83 89 83 6 0
11 3 11 8 0 4 16 26 35 48 l36 42 38 -19 c45 -21 157 -95 165 -108 3 -5 1 -23
-5 -40 -16 -45 3 -65 54 -58 67 9 74 23 52 114 -11 43 -30 95 -43 116 -20 32
-21 41 -10 55 17 23 58 62 64 62 2 0 35 -14 71 -30z m1047 -756 c33 -8 66 -20
71 -26 7 -7 4 -9 -10 -5 -11 3 -49 13 -84 22 -36 8 -67 18 -70 20 -9 10 32 5
93 -11z m-1963 -2307 l-24 -22 19 27 c10 14 21 24 23 22 3 -3 -6 -15 -18 -27z"/>
<path d="M2849 6169 c-37 -40 -48 -93 -24 -119 31 -34 115 -20 147 25 15 20
16 28 5 52 -33 77 -81 93 -128 42z"/>
<path d="M3272 5639 c-9 -17 -26 -43 -38 -58 -11 -14 -44 -64 -72 -111 -47
-79 -51 -91 -53 -156 -2 -85 11 -116 49 -112 21 2 29 12 43 51 22 61 36 77 65
77 21 0 44 25 44 48 0 5 -12 14 -26 21 -22 10 -25 16 -19 44 10 49 38 139 52
167 17 33 16 37 -7 50 -18 9 -23 7 -38 -21z"/>
<path d="M2644 5650 c-33 -13 -35 -36 -5 -77 15 -21 39 -61 53 -90 21 -43 24
-59 18 -93 -4 -23 -17 -50 -29 -61 -44 -41 -11 -76 42 -45 l30 17 39 -38 c22
-21 48 -58 59 -82 15 -34 22 -42 36 -36 10 4 31 8 47 9 52 2 55 27 13 108 -21
40 -37 81 -37 90 0 9 -4 20 -10 23 -5 3 -10 12 -10 20 0 29 -122 185 -144 185
-6 0 -27 17 -46 39 -29 32 -39 38 -56 31z"/>
<path d="M3832 4838 c-7 -7 -12 -27 -12 -44 0 -23 -8 -39 -27 -54 -23 -18 -25
-24 -17 -48 8 -24 15 -27 60 -30 42 -2 56 1 80 21 37 31 100 63 141 71 37 8
56 27 47 49 -4 13 -21 14 -105 10 -93 -6 -100 -4 -118 16 -21 24 -32 26 -49 9z"/>
<path d="M3131 4731 c-7 -5 -51 -6 -97 -3 -82 5 -83 5 -95 -22 -11 -22 -9 -33
10 -71 12 -24 25 -60 28 -80 l6 -35 -54 16 c-30 9 -73 32 -97 51 -32 27 -49
34 -67 29 -30 -8 -35 -26 -37 -141 -2 -168 0 -181 26 -198 41 -27 91 -12 128
39 39 55 65 65 90 34 23 -29 24 -102 2 -121 -23 -19 -37 -60 -25 -72 6 -6 25
-12 43 -13 18 -1 56 -4 83 -7 60 -5 101 8 108 33 2 10 1 53 -4 96 -12 117 -11
124 9 124 22 0 93 -38 107 -57 11 -14 64 -10 66 6 0 3 2 38 3 76 1 48 7 78 19
95 9 13 17 35 17 48 0 21 -3 24 -27 18 -64 -16 -85 -18 -129 -11 -50 7 -63 24
-45 58 21 40 29 83 19 100 -10 18 -63 23 -87 8z"/>
<path d="M2182 4582 c-51 -46 -66 -82 -41 -98 24 -15 267 -60 285 -53 10 4 38
5 62 2 34 -5 45 -2 56 13 18 24 4 54 -22 47 -13 -3 -21 2 -25 16 -6 25 -44 41
-98 41 -41 0 -52 6 -99 53 -16 15 -36 27 -47 27 -10 0 -42 -22 -71 -48z"/>
<path d="M3870 4513 c-35 -13 -72 -31 -81 -39 -8 -7 -22 -14 -30 -14 -21 0
-39 -20 -39 -43 0 -16 4 -18 23 -12 12 4 54 11 92 15 64 7 71 6 86 -12 19 -24
54 -18 62 11 6 25 61 50 121 55 44 5 65 17 66 38 0 16 -31 22 -130 24 -90 2
-114 -2 -170 -23z"/>
<path d="M2394 4319 c-61 -11 -170 -63 -188 -91 -8 -13 -17 -35 -18 -48 -3
-23 0 -25 37 -25 24 -1 56 -10 78 -24 43 -26 73 -21 90 16 9 19 8 26 -4 33
-12 8 -11 12 6 24 11 8 38 20 60 26 56 16 85 37 85 60 0 27 -72 41 -146 29z"/>
<path d="M1473 4275 c-60 -42 -87 -130 -53 -173 32 -38 107 -24 147 28 34 45
16 132 -32 150 -34 13 -37 13 -62 -5z"/>
<path d="M2770 3930 c0 -5 5 -10 10 -10 6 0 10 5 10 10 0 6 -4 10 -10 10 -5 0
-10 -4 -10 -10z"/>
<path d="M3251 3771 c-26 -16 -7 -85 45 -163 27 -40 57 -80 66 -90 10 -10 25
-34 33 -55 30 -70 64 -92 86 -52 9 17 7 25 -11 44 -12 13 -26 43 -31 67 -5 24
-13 60 -18 80 -7 30 -5 46 10 74 16 32 16 38 4 51 -11 11 -19 12 -36 2 -23
-12 -44 -5 -101 33 -30 21 -29 20 -47 9z"/>
<path d="M3065 3763 c-30 -8 -42 -20 -66 -69 -11 -25 -39 -59 -60 -76 -49 -39
-54 -73 -9 -65 23 5 33 1 49 -19 28 -36 42 -90 35 -136 -6 -33 -4 -38 13 -38
26 0 41 19 49 61 4 20 20 45 38 60 31 27 31 27 28 120 -4 157 -14 178 -77 162z"/>
<path d="M3508 3070 c-25 -15 -68 -99 -75 -145 -4 -31 -1 -44 12 -55 26 -22
77 -22 112 0 67 41 84 109 42 173 -25 38 -56 47 -91 27z"/>
<path d="M4793 3205 c-20 -19 -33 -35 -30 -35 3 0 0 -15 -8 -34 -8 -18 -17
-48 -20 -67 -3 -18 -8 -36 -11 -41 -13 -21 54 17 80 45 l29 31 -5 -124 c-5
-134 -13 -159 -79 -256 -34 -49 -127 -127 -145 -120 -7 3 -17 -8 -24 -24 -22
-53 11 -66 64 -27 54 40 59 42 51 17 -5 -17 -4 -21 5 -15 8 5 11 4 6 -3 -3 -6
7 -37 23 -69 29 -58 64 -143 97 -238 23 -67 29 -254 8 -293 -7 -15 -14 -34
-14 -43 0 -9 -10 -40 -22 -68 -21 -51 -24 -54 -121 -102 -146 -74 -225 -92
-362 -84 -60 3 -115 11 -121 16 -6 5 -33 12 -60 15 -68 7 -76 7 -104 -2 -23
-7 -24 -6 -11 10 13 15 12 16 -15 11 -16 -3 -50 -8 -75 -10 -26 -2 -66 -11
-90 -19 -24 -7 -57 -17 -73 -20 -42 -10 -189 -80 -239 -114 l-42 -30 -40 21
c-32 17 -55 21 -120 19 -44 -1 -102 3 -130 9 -54 12 -134 52 -171 84 -69 61
-88 83 -105 119 -18 41 -18 41 -76 43 -97 3 -132 -5 -147 -35 -17 -33 -8 -59
30 -90 16 -12 43 -33 59 -46 33 -25 218 -116 278 -135 20 -7 37 -17 37 -22 0
-5 -28 -35 -62 -67 -121 -112 -156 -154 -196 -236 -77 -155 -81 -250 -16 -393
8 -17 14 -34 14 -38 0 -15 92 -125 141 -168 60 -54 227 -140 269 -140 16 0 27
-4 24 -8 -2 -4 22 -13 53 -19 32 -7 69 -16 83 -21 26 -9 146 -25 263 -35 44
-4 72 -2 81 5 8 7 18 11 22 10 22 -4 34 2 34 16 0 17 -16 21 -22 5 -1 -5 -8 2
-15 15 -9 20 -8 25 3 25 8 0 14 6 14 13 0 6 11 13 25 13 72 5 107 35 84 72 -9
15 -29 21 -80 26 -37 3 -74 8 -81 11 -13 5 -48 55 -48 68 0 5 53 45 155 117
61 43 243 150 307 181 37 18 45 26 36 36 -12 15 3 18 18 3 15 -15 44 -2 37 17
-4 10 -2 14 5 9 6 -3 13 -2 17 4 3 5 0 10 -8 10 -26 0 -166 -39 -189 -53 -15
-9 -61 -14 -134 -16 -109 -2 -112 -2 -176 32 -120 64 -208 139 -275 236 -53
78 -53 85 13 147 67 62 89 70 224 79 52 4 111 8 130 10 71 8 186 24 208 29 13
3 78 10 145 16 67 6 125 14 130 17 11 7 155 16 221 14 80 -2 148 53 254 206
12 18 42 44 67 58 74 44 186 172 234 267 60 122 72 172 78 343 5 144 -11 343
-37 445 -5 19 -14 62 -20 95 -17 86 -39 135 -56 128 -9 -3 -14 1 -14 12 0 9 5
13 11 9 7 -4 10 -2 8 5 -3 7 -8 12 -13 11 -5 -1 -17 12 -27 29 -10 16 -27 35
-38 41 -12 6 -27 23 -35 39 -16 30 -38 36 -74 18 -17 -8 -25 -8 -34 1 -18 18
-26 15 -65 -23z m-53 -594 c0 -12 -20 -25 -27 -18 -7 7 6 27 18 27 5 0 9 -4 9
-9z"/>
<path d="M3705 1349 c-4 -6 -5 -12 -2 -15 2 -3 7 2 10 11 7 17 1 20 -8 4z"/>
<path d="M4295 1000 c-3 -5 1 -10 9 -10 9 0 16 5 16 10 0 6 -4 10 -9 10 -6 0
-13 -4 -16 -10z"/>
</g>
</svg>
