<svg width="40px" height="40px" viewBox="0 0 24 24" fill="none" xmlns="http://www.w3.org/2000/svg"><g id="SVGRepo_bgCarrier" stroke-width="0"></g><g id="SVGRepo_tracerCarrier" stroke-linecap="round" stroke-linejoin="round"></g><g id="SVGRepo_iconCarrier"> <path fill-rule="evenodd" clip-rule="evenodd" d="M19 23H11C10.4477 23 10 22.5523 10 22C10 21.4477 10.4477 21 11 21H19C19.5523 21 20 20.5523 20 20V4C20 3.44772 19.5523 3 19 3L11 3C10.4477 3 10 2.55229 10 2C10 1.44772 10.4477 1 11 1L19 1C20.6569 1 22 2.34315 22 4V20C22 21.6569 20.6569 23 19 23Z" fill="#f3f3f3"></path> <path fill-rule="evenodd" clip-rule="evenodd" d="M2.48861 13.3099C1.83712 12.5581 1.83712 11.4419 2.48862 10.6902L6.66532 5.87088C7.87786 4.47179 10.1767 5.32933 10.1767 7.18074L10.1767 9.00001H16.1767C17.2813 9.00001 18.1767 9.89544 18.1767 11V13C18.1767 14.1046 17.2813 15 16.1767 15L10.1767 15V16.8193C10.1767 18.6707 7.87786 19.5282 6.66532 18.1291L2.48861 13.3099ZM4.5676 11.3451C4.24185 11.7209 4.24185 12.2791 4.5676 12.6549L8.1767 16.8193V14.5C8.1767 13.6716 8.84827 13 9.6767 13L16.1767 13V11L9.6767 11C8.84827 11 8.1767 10.3284 8.1767 9.50001L8.1767 7.18074L4.5676 11.3451Z" fill="#f3f3f3"></path> </g></svg>