<svg width="50px" height="50px" viewBox="0 0 24 24" fill="none" xmlns="http://www.w3.org/2000/svg"><g id="SVGRepo_bgCarrier" stroke-width="0"></g><g id="SVGRepo_tracerCarrier" stroke-linecap="round" stroke-linejoin="round"></g><g id="SVGRepo_iconCarrier"> <path fill-rule="evenodd" clip-rule="evenodd" d="M12.7647 10.946L14.9019 9.835C15.5322 9.45474 15.907 8.74934 15.8769 8V4.5H7.52115V8C7.49108 8.74934 7.86589 9.45474 8.49615 9.835L10.6353 10.946C11.3031 11.3002 12.0969 11.3002 12.7647 10.946Z" stroke="#f3f3f3" stroke-width="1.5" stroke-linecap="round" stroke-linejoin="round"></path> <path d="M17.55 19.25C17.9642 19.25 18.3 18.9142 18.3 18.5C18.3 18.0858 17.9642 17.75 17.55 17.75V19.25ZM5.84998 17.75C5.43576 17.75 5.09998 18.0858 5.09998 18.5C5.09998 18.9142 5.43576 19.25 5.84998 19.25V17.75ZM6.77113 18.5C6.77113 18.9142 7.10691 19.25 7.52113 19.25C7.93534 19.25 8.27113 18.9142 8.27113 18.5H6.77113ZM7.52113 15.438H8.27113C8.27113 15.428 8.27092 15.4179 8.27052 15.4079L7.52113 15.438ZM8.49613 13.603L8.1502 12.9375C8.13612 12.9449 8.12227 12.9526 8.10868 12.9608L8.49613 13.603ZM10.6353 12.491L10.9812 13.1565L10.9869 13.1535L10.6353 12.491ZM12.7656 12.491L12.414 13.1535L12.4201 13.1566L12.7656 12.491ZM14.9019 13.6L15.2893 12.9578C15.2756 12.9496 15.2616 12.9417 15.2474 12.9344L14.9019 13.6ZM15.8769 15.435L15.1275 15.4049C15.1271 15.4149 15.1269 15.425 15.1269 15.435L15.8769 15.435ZM15.1269 18.5C15.1269 18.9142 15.4627 19.25 15.8769 19.25C16.2911 19.25 16.6269 18.9142 16.6269 18.5H15.1269ZM15.8769 3.75C15.4627 3.75 15.1269 4.08579 15.1269 4.5C15.1269 4.91421 15.4627 5.25 15.8769 5.25V3.75ZM17.55 5.25C17.9642 5.25 18.3 4.91421 18.3 4.5C18.3 4.08579 17.9642 3.75 17.55 3.75V5.25ZM7.52113 5.25C7.93534 5.25 8.27113 4.91421 8.27113 4.5C8.27113 4.08579 7.93534 3.75 7.52113 3.75V5.25ZM5.84998 3.75C5.43576 3.75 5.09998 4.08579 5.09998 4.5C5.09998 4.91421 5.43576 5.25 5.84998 5.25V3.75ZM17.55 17.75H5.84998V19.25H17.55V17.75ZM8.27113 18.5V15.438H6.77113V18.5H8.27113ZM8.27052 15.4079C8.25116 14.9255 8.49298 14.4808 8.88357 14.2452L8.10868 12.9608C7.23875 13.4857 6.73095 14.4518 6.77173 15.4681L8.27052 15.4079ZM8.84205 14.2685L10.9812 13.1565L10.2893 11.8255L8.1502 12.9375L8.84205 14.2685ZM10.9869 13.1535C11.4351 12.9156 11.9659 12.9156 12.414 13.1535L13.1173 11.8285C12.2293 11.3572 11.1716 11.3572 10.2837 11.8285L10.9869 13.1535ZM12.4201 13.1566L14.5563 14.2656L15.2474 12.9344L13.1112 11.8254L12.4201 13.1566ZM14.5144 14.2422C14.905 14.4778 15.1468 14.9225 15.1275 15.4049L16.6263 15.4651C16.6671 14.4488 16.1593 13.4827 15.2893 12.9578L14.5144 14.2422ZM15.1269 15.435V18.5H16.6269V15.435H15.1269ZM15.8769 5.25H17.55V3.75H15.8769V5.25ZM7.52113 3.75H5.84998V5.25H7.52113V3.75Z" fill="#f3f3f3"></path> </g></svg>