<?xml version="1.0" standalone="no"?>
<!DOCTYPE svg PUBLIC "-//W3C//DTD SVG 20010904//EN"
 "http://www.w3.org/TR/2001/REC-SVG-20010904/DTD/svg10.dtd">
<svg version="1.0" xmlns="http://www.w3.org/2000/svg"
 width="40px" height="40px" viewBox="0 0 385.000000 546.000000"
 preserveAspectRatio="xMidYMid meet">

<g transform="translate(0.000000,546.000000) scale(0.100000,-0.100000)"
fill="white" stroke="none">
<path d="M2062 5308 c-13 -17 -31 -84 -46 -177 -13 -83 -42 -138 -143 -272
-29 -38 -53 -72 -53 -76 0 -3 -8 -11 -17 -18 -18 -13 -17 -15 129 -232 26 -39
48 -83 48 -97 0 -24 -30 -113 -50 -148 -13 -23 -13 -95 0 -103 18 -11 40 16
40 47 0 17 8 42 19 56 10 15 25 55 34 89 28 113 143 250 230 275 23 6 48 17
56 24 16 15 6 34 -18 34 -10 0 -29 8 -42 18 -13 10 -36 23 -51 29 -15 7 -35
25 -44 40 -10 15 -28 37 -40 48 -29 26 -54 102 -54 167 0 40 7 62 32 102 32
51 56 160 34 153 -6 -2 -13 -12 -16 -23 -8 -30 -41 -86 -47 -81 -3 3 2 37 11
76 9 38 16 72 16 75 0 11 -17 6 -28 -6z"/>
<path d="M1720 4520 c0 -6 -6 -10 -12 -9 -41 5 -48 -1 -48 -40 0 -24 -8 -48
-21 -65 -22 -28 -39 -32 -57 -14 -9 9 -7 17 9 34 12 13 16 24 11 28 -12 7 -63
-36 -182 -154 -135 -134 -237 -200 -473 -305 -59 -27 -106 -53 -104 -59 7 -19
88 -6 161 25 120 49 85 23 -65 -50 -257 -124 -566 -176 -673 -113 -36 21 -46
20 -46 -8 0 -26 55 -51 131 -57 59 -5 69 -8 63 -22 -18 -44 1 -57 89 -60 46
-1 48 14 5 33 -32 13 -30 13 67 22 132 12 405 7 422 -8 7 -6 16 -8 19 -6 7 8
121 -27 150 -47 30 -19 69 -80 76 -119 5 -26 -1 -33 -83 -93 -49 -36 -89 -72
-89 -80 0 -12 -12 -14 -77 -8 -43 4 -80 8 -83 8 -3 1 -36 -2 -74 -6 -112 -13
-176 -57 -162 -113 5 -17 0 -33 -14 -51 -25 -32 -26 -79 -1 -119 44 -73 179
-145 182 -97 3 40 -4 59 -29 87 -21 22 -23 28 -9 23 11 -4 30 -10 44 -13 l25
-7 -17 27 c-18 26 -17 27 9 55 l27 28 -26 21 -26 21 48 6 c109 14 203 40 203
55 0 3 21 6 48 8 69 4 100 11 106 27 4 11 -2 13 -27 8 -35 -7 -34 -5 21 55 12
14 27 43 33 66 6 23 30 62 56 90 24 28 53 67 64 87 26 51 34 133 20 201 -15
72 -74 164 -114 177 l-28 10 27 37 c15 19 52 52 82 72 30 21 66 44 79 53 45
30 185 154 203 179 26 37 79 179 69 186 -5 3 -9 0 -9 -6z m-160 -215 c-16 -20
-80 -59 -86 -53 -4 5 84 68 95 68 2 0 -2 -7 -9 -15z"/>
<path d="M2292 4517 c-14 -16 -8 -81 12 -127 14 -33 13 -36 -6 -46 -23 -13
-26 -9 54 -74 20 -17 51 -53 68 -80 18 -28 37 -50 43 -50 6 0 7 -3 4 -6 -4 -4
23 -45 59 -91 67 -85 88 -130 77 -161 -4 -9 -30 -44 -58 -77 -137 -163 -179
-310 -125 -440 20 -48 34 -65 71 -88 40 -25 56 -28 125 -28 100 0 236 38 271
75 13 14 43 35 67 45 23 11 49 27 56 36 11 13 15 13 21 3 15 -22 10 -38 -11
-38 -14 0 -20 -7 -20 -23 0 -24 -33 -47 -65 -47 -28 0 -15 -54 16 -71 15 -8
26 -5 48 11 16 11 33 20 38 20 18 0 6 -49 -20 -80 -15 -17 -25 -36 -21 -41 10
-16 50 -10 84 14 55 38 120 147 83 140 -9 -2 -13 10 -13 37 0 26 -5 43 -14 46
-12 5 -12 10 0 39 29 70 9 95 -74 95 -90 -1 -261 -70 -215 -87 18 -7 -46 -58
-87 -71 -59 -17 -99 -22 -105 -12 -3 6 -16 10 -29 10 -17 0 -22 6 -22 23 1 17
-4 21 -22 19 -46 -7 -56 85 -17 166 28 59 67 85 127 84 27 -1 42 5 52 20 8 12
28 29 43 39 57 38 58 18 3 -55 -22 -29 -40 -60 -40 -69 0 -34 30 -15 76 48
l48 65 85 -6 c77 -6 94 -4 166 21 44 15 97 39 119 54 33 22 48 25 101 23 47
-2 65 1 75 13 12 14 11 18 -1 26 -8 5 -20 9 -28 9 -21 0 1 23 91 93 78 59 121
108 83 94 -9 -4 -20 -7 -24 -7 -4 0 -48 -30 -97 -66 l-89 -66 -100 7 c-125 8
-227 23 -240 36 -5 5 -16 9 -25 9 -14 0 -95 41 -167 85 -18 11 -33 25 -33 32
0 6 -4 13 -10 15 -5 2 -44 36 -87 76 -43 39 -87 80 -98 91 -11 10 -52 52 -91
93 -60 63 -71 80 -67 102 5 24 -3 31 -24 24 -4 -2 -9 -21 -10 -42 -3 -35 -18
-68 -25 -55 -8 11 -58 120 -58 124 0 3 11 3 25 -1 29 -7 31 2 9 34 -17 25 -46
29 -62 9z m258 -821 c0 -7 -11 -21 -24 -30 l-25 -16 17 30 c18 32 32 39 32 16z"/>
<path d="M1937 4124 c-4 -4 -7 -16 -7 -27 0 -10 -20 -39 -44 -63 -42 -41 -44
-46 -35 -74 8 -23 17 -30 36 -30 22 0 25 -4 21 -25 -3 -14 1 -30 8 -36 11 -9
16 -5 24 16 5 14 10 30 10 35 0 5 17 19 38 31 20 13 43 29 50 36 7 7 18 13 23
13 5 0 9 6 9 13 0 7 -19 20 -42 28 -37 14 -44 21 -48 50 -5 32 -27 49 -43 33z"/>
<path d="M1486 4106 c-43 -16 -88 -46 -93 -63 -2 -6 33 -12 94 -16 68 -4 123
-14 181 -33 98 -33 110 -29 131 39 17 56 5 78 -43 76 -17 0 -76 2 -131 5 -76
5 -110 3 -139 -8z"/>
<path d="M2188 4073 c-17 -21 -48 -101 -48 -126 0 -15 13 -17 108 -18 59 0
118 -2 132 -4 35 -5 138 -44 145 -56 8 -12 42 -11 51 2 11 19 -59 67 -131 88
-68 20 -176 80 -204 114 -17 22 -34 21 -53 0z"/>
<path d="M3707 3924 c-11 -14 -30 -29 -43 -34 -28 -11 -74 -97 -74 -138 0 -36
16 -52 54 -52 121 1 149 32 143 153 -4 79 -13 97 -47 97 -8 -1 -23 -12 -33
-26z m33 -118 c0 -3 -4 -8 -10 -11 -5 -3 -10 -1 -10 4 0 6 5 11 10 11 6 0 10
-2 10 -4z"/>
<path d="M1908 3758 c4 -83 4 -83 -46 -179 -51 -100 -159 -251 -191 -269 -11
-5 -40 -45 -65 -87 -69 -118 -98 -148 -141 -145 -26 2 -42 -4 -60 -22 -14 -14
-25 -32 -25 -40 0 -8 -16 -24 -36 -36 -25 -14 -34 -24 -27 -31 12 -12 58 5
121 45 50 31 62 32 62 6 0 -11 5 -20 10 -20 6 0 14 -10 19 -22 5 -13 31 -53
59 -90 28 -36 53 -76 57 -87 3 -12 10 -19 14 -17 4 3 8 0 8 -7 1 -7 8 -43 17
-82 25 -116 34 -251 19 -286 -7 -17 -13 -46 -13 -64 0 -17 -4 -45 -9 -61 -5
-16 -20 -63 -32 -104 -12 -41 -30 -84 -39 -95 -10 -11 -17 -27 -17 -36 0 -16
-51 -97 -86 -136 -18 -20 -31 -23 -92 -23 -39 0 -98 5 -130 11 -61 11 -195 73
-195 91 0 5 -4 7 -8 4 -5 -3 -19 8 -32 25 -14 16 -29 29 -35 29 -6 0 -19 14
-30 32 -10 18 -67 79 -126 137 -124 123 -231 276 -356 512 -17 33 -36 66 -42
73 -16 19 -166 316 -175 346 -11 35 -11 35 -36 140 -24 99 -35 124 -45 98 -9
-22 12 -198 29 -250 7 -24 21 -86 31 -138 27 -143 72 -285 142 -440 54 -119
58 -131 44 -140 -10 -5 -1 -31 34 -101 26 -51 55 -105 65 -119 21 -30 66 -119
53 -105 -25 27 -73 94 -73 102 0 6 -12 28 -28 49 -24 34 -39 61 -87 155 -10
20 -32 32 -45 24 -9 -5 55 -134 74 -150 7 -5 15 -21 19 -35 3 -14 31 -63 62
-109 30 -47 55 -86 55 -88 0 -3 67 -97 92 -128 4 -5 25 -34 46 -63 59 -79 140
-162 160 -162 9 0 49 -35 89 -77 116 -126 294 -304 363 -364 36 -31 82 -71
103 -89 20 -17 37 -28 37 -24 0 5 13 -7 29 -26 l29 -35 13 28 c7 15 15 27 18
27 15 0 135 -126 169 -177 60 -89 112 -184 134 -243 12 -30 25 -66 31 -80 6
-14 10 -28 9 -32 -1 -5 3 -8 9 -8 14 0 6 93 -12 144 -11 31 -11 38 5 55 10 11
16 26 13 34 -3 8 3 43 13 78 9 35 18 105 19 154 2 79 5 92 23 106 18 14 23 32
29 105 4 49 15 136 24 194 16 105 19 126 30 230 10 89 16 151 20 210 2 30 4
55 5 55 1 0 3 10 6 23 7 37 -13 25 -25 -15 -7 -28 -9 22 -6 195 3 145 1 240
-5 252 -6 11 -6 21 -1 24 5 3 3 32 -4 66 -14 66 -11 274 5 314 5 13 5 27 0 32
-4 5 -11 90 -14 190 -6 184 -9 217 -26 384 -17 157 -18 182 -19 258 -1 65 -3
72 -21 72 -16 0 -20 7 -20 36 0 41 -15 74 -34 74 -9 0 -11 -20 -8 -82z m84
-940 c-7 -7 -12 -8 -12 -2 0 14 12 26 19 19 2 -3 -1 -11 -7 -17z"/>
<path d="M150 3791 c-9 -3 -32 -19 -52 -34 -28 -21 -35 -34 -32 -50 3 -12 8
-40 11 -62 11 -78 73 -90 122 -23 27 36 30 47 24 82 -10 63 -41 100 -73 87z"/>
<path d="M3637 3373 c-3 -5 -10 -41 -16 -81 -12 -80 -33 -139 -67 -192 -12
-19 -37 -71 -55 -115 -18 -44 -41 -88 -51 -98 -10 -10 -15 -24 -11 -34 4 -9 0
-21 -8 -27 -9 -6 -25 -32 -38 -58 -26 -55 -149 -180 -186 -190 -38 -10 -91 1
-111 23 -9 11 -23 19 -30 19 -7 0 -11 6 -9 13 3 6 0 19 -5 27 -9 13 -11 13
-19 1 -5 -8 -7 -21 -5 -30 3 -9 -1 -6 -7 7 -7 12 -17 22 -23 22 -6 0 -4 5 4
10 12 8 12 10 1 10 -19 0 -7 98 18 154 42 96 107 136 186 115 42 -12 52 -10
47 6 -1 6 4 1 13 -9 12 -16 17 -17 30 -6 22 19 19 27 -25 59 -21 15 -37 30
-35 33 13 13 -40 40 -96 49 -154 25 -471 -30 -622 -107 -20 -11 -64 -51 -98
-89 -33 -39 -74 -85 -90 -103 -60 -68 -71 -104 -66 -217 4 -83 10 -111 30
-152 29 -57 73 -97 129 -120 21 -8 44 -23 51 -33 6 -9 23 -20 35 -25 23 -7 23
-6 7 18 -18 28 -14 34 30 38 19 2 45 -5 68 -20 36 -22 41 -31 38 -59 -2 -9 4
-12 18 -7 30 9 86 -70 95 -133 9 -67 -17 -146 -120 -369 -13 -28 -24 -59 -24
-67 0 -23 -20 -65 -62 -129 -21 -32 -38 -60 -38 -62 0 -2 -11 -21 -25 -41 -14
-20 -25 -41 -25 -45 0 -17 22 -9 27 9 2 10 13 23 23 30 26 16 -25 -90 -154
-323 -127 -229 -145 -266 -146 -288 0 -9 -4 -25 -9 -35 -8 -16 -27 -69 -38
-104 -3 -10 0 -18 6 -18 6 0 27 34 47 75 20 41 40 75 46 75 5 0 7 4 4 9 -10
16 53 114 180 279 15 20 34 32 48 32 23 0 76 55 76 79 0 6 3 11 8 11 4 0 16
17 27 37 21 39 111 133 127 133 6 0 7 -11 4 -25 -5 -18 -2 -25 8 -25 9 0 13 7
11 20 -2 11 0 20 6 20 5 0 7 10 4 23 -5 20 10 40 98 126 68 68 108 115 115
137 14 45 -7 46 -42 2 -14 -18 -27 -30 -31 -27 -3 3 4 17 15 32 11 14 20 30
20 35 0 5 6 15 14 21 7 6 39 53 70 104 41 68 65 98 89 109 111 53 225 158 228
211 3 44 -3 102 -12 107 -5 3 9 39 31 80 22 41 56 118 75 170 20 52 45 114 56
138 11 24 17 48 14 53 -4 5 -2 9 4 9 6 0 19 17 29 38 10 20 31 59 46 85 27 45
30 67 7 53 -6 -4 -28 -37 -51 -74 -22 -37 -40 -62 -40 -56 0 6 20 65 45 132
47 129 73 211 80 258 3 16 9 49 14 74 20 91 11 221 -12 183z m-101 -420 c-8
-15 -15 -25 -16 -21 0 12 23 58 27 54 3 -2 -2 -17 -11 -33z m-95 -370 c-11
-21 -20 -35 -21 -31 0 12 33 78 38 74 2 -2 -6 -21 -17 -43z m-126 -43 c-3 -5
-11 -10 -16 -10 -6 0 -7 5 -4 10 3 6 11 10 16 10 6 0 7 -4 4 -10z m84 -44
c-29 -49 -34 -46 -9 5 12 23 24 39 26 36 3 -2 -5 -21 -17 -41z m-48 -79 c-10
-9 -11 -8 -5 6 3 10 9 15 12 12 3 -3 0 -11 -7 -18z m-31 -256 c0 -29 -9 -51
-32 -82 -30 -38 -131 -118 -151 -119 -14 0 34 76 77 122 22 24 52 61 66 81 14
20 28 37 33 37 4 0 7 -18 7 -39z m-840 -989 c0 -5 -7 -17 -16 -28 -8 -10 -14
-14 -11 -9 2 6 7 18 10 28 7 17 17 23 17 9z"/>
<path d="M1280 3305 c-8 -9 -8 -15 -2 -15 12 0 26 19 19 26 -2 2 -10 -2 -17
-11z"/>
<path d="M3425 3210 c-3 -5 -1 -18 4 -27 9 -16 10 -14 11 10 0 28 -5 34 -15
17z"/>
<path d="M3418 3153 c-3 -17 -5 -31 -12 -93 -4 -36 -9 -77 -12 -92 -8 -42 14
-34 25 10 15 60 22 182 11 182 -5 0 -11 -3 -12 -7z"/>
<path d="M3346 3062 c-7 -12 -34 -143 -34 -169 -1 -13 3 -23 7 -23 13 0 31 49
31 88 0 20 4 54 9 75 8 33 0 50 -13 29z"/>
<path d="M3246 2837 c-8 -31 -7 -39 3 -33 12 8 21 45 11 51 -4 3 -10 -5 -14
-18z"/>
<path d="M3035 2690 c-3 -5 -1 -10 4 -10 6 0 11 5 11 10 0 6 -2 10 -4 10 -3 0
-8 -4 -11 -10z"/>
<path d="M340 2457 c0 -7 6 -21 13 -32 19 -25 32 -3 15 25 -15 23 -28 26 -28
7z"/>
<path d="M2083 2229 c-2 -23 3 -25 10 -4 4 8 3 16 -1 19 -4 3 -9 -4 -9 -15z"/>
<path d="M2620 2139 c0 -5 5 -7 10 -4 6 3 10 8 10 11 0 2 -4 4 -10 4 -5 0 -10
-5 -10 -11z"/>
<path d="M2070 2070 c0 -11 4 -20 9 -20 5 0 7 9 4 20 -3 11 -7 20 -9 20 -2 0
-4 -9 -4 -20z"/>
<path d="M2010 491 c-5 -11 -10 -27 -10 -36 0 -9 -11 -27 -25 -41 -24 -24 -34
-64 -17 -64 18 0 41 -73 43 -135 2 -69 6 -79 29 -65 9 5 15 31 17 72 3 74 17
104 55 124 31 16 37 39 13 48 -8 3 -15 14 -15 24 0 10 -13 28 -30 40 -16 13
-30 29 -30 37 0 21 -17 18 -30 -4z"/>
</g>
</svg>
