<?xml version="1.0" standalone="no"?>
<!DOCTYPE svg PUBLIC "-//W3C//DTD SVG 20010904//EN"
 "http://www.w3.org/TR/2001/REC-SVG-20010904/DTD/svg10.dtd">
<svg version="1.0" xmlns="http://www.w3.org/2000/svg"
 width="40px" height="40px" viewBox="0 0 421.000000 680.000000"
 preserveAspectRatio="xMidYMid meet">

<g transform="translate(0.000000,680.000000) scale(0.100000,-0.100000)"
fill="white" stroke="none">
<path d="M1039 6597 c-54 -42 -89 -168 -54 -197 8 -7 15 -9 15 -4 1 5 9 -1 20
-14 10 -12 35 -29 54 -37 32 -14 35 -17 26 -41 -24 -61 -6 -93 45 -80 40 10
58 49 60 127 2 61 -1 72 -19 85 -15 10 -20 23 -18 48 7 82 -76 154 -129 113z"/>
<path d="M350 6581 c-6 -12 -7 -21 -1 -21 10 0 24 30 17 37 -2 3 -9 -5 -16
-16z"/>
<path d="M337 6543 c-8 -16 -6 -141 4 -208 10 -71 42 -163 79 -232 11 -21 20
-48 20 -61 0 -26 17 -63 34 -75 6 -4 28 -5 48 -1 31 5 48 0 93 -26 49 -28 53
-33 42 -50 -9 -16 -8 -23 6 -37 13 -13 19 -14 29 -5 20 20 25 14 25 -26 0 -36
-2 -39 -58 -66 -34 -17 -80 -51 -112 -85 -29 -31 -75 -72 -102 -91 -27 -19
-60 -50 -72 -69 -13 -19 -35 -40 -50 -48 -52 -27 -112 -78 -108 -91 3 -7 1
-11 -4 -8 -9 6 -26 -22 -22 -37 1 -5 -4 -5 -10 -1 -12 7 -29 -13 -29 -36 0
-13 1 -13 10 0 5 8 12 12 15 8 4 -3 0 -12 -8 -19 -8 -7 -12 -22 -9 -33 3 -12
1 -17 -6 -12 -16 10 -24 -10 -8 -23 8 -7 12 -21 9 -31 -3 -11 0 -27 7 -35 6
-8 14 -36 16 -62 3 -31 12 -54 25 -65 10 -9 19 -23 19 -31 0 -19 111 -184 143
-214 14 -13 30 -43 36 -67 6 -25 15 -48 21 -51 5 -3 9 -44 9 -91 0 -47 5 -91
10 -98 12 -15 2 -47 -52 -154 -25 -51 -28 -65 -17 -72 20 -12 36 -3 64 41 15
21 31 39 37 39 14 0 35 56 43 115 8 54 31 139 47 167 5 10 9 26 9 36 0 10 5
23 12 30 9 9 12 58 12 165 0 148 -3 185 -23 277 -5 25 -18 85 -29 134 -22 102
-19 133 14 148 30 14 33 43 4 35 -16 -4 -20 0 -20 17 0 13 9 31 20 41 11 10
20 26 20 36 0 11 17 26 46 40 26 12 79 54 118 93 53 53 78 71 99 71 37 1 51
24 30 47 -15 17 -15 20 10 46 19 20 27 39 27 65 0 20 11 80 25 134 14 54 25
107 25 117 0 16 -3 15 -25 -8 -14 -15 -25 -34 -25 -42 0 -18 0 -18 -61 2 -48
16 -54 16 -134 -5 -110 -30 -160 -21 -203 33 -16 21 -18 37 -14 119 4 89 3 96
-17 106 -26 15 -26 35 0 104 15 38 26 54 35 50 15 -6 18 6 8 31 -8 22 -17 20
-47 -8 -32 -30 -64 -91 -81 -158 l-13 -52 -11 34 c-15 49 -25 117 -24 167 1
41 -2 52 -11 36z m403 -518 c-7 -8 -22 -15 -34 -15 -20 1 -20 2 4 15 33 19 46
19 30 0z m137 -57 c-3 -8 -6 -5 -6 6 -1 11 2 17 5 13 3 -3 4 -12 1 -19z m-166
-297 c-50 -51 -87 -74 -122 -76 -16 -1 -27 1 -23 4 9 10 168 109 176 110 4 1
-10 -16 -31 -38z m-326 -211 c-3 -5 -10 -10 -16 -10 -5 0 -9 5 -9 10 0 6 7 10
16 10 8 0 12 -4 9 -10z m156 -617 c0 -96 -9 -173 -22 -173 -10 0 -12 134 -2
234 8 93 24 55 24 -61z"/>
<path d="M537 6303 c-11 -10 -8 -43 4 -43 5 0 8 4 4 9 -3 5 -1 12 5 16 5 3 10
10 10 16 0 10 -14 12 -23 2z"/>
<path d="M1678 6263 c-10 -2 -18 -10 -18 -18 0 -7 -14 -18 -30 -25 -26 -11
-33 -10 -50 5 -19 17 -20 17 -29 -6 -5 -13 -23 -37 -40 -52 -16 -15 -33 -36
-36 -47 -3 -10 -21 -24 -39 -30 -41 -13 -69 -42 -64 -67 5 -26 41 -28 63 -3
24 27 39 25 81 -7 24 -18 34 -32 31 -45 -3 -10 -1 -21 5 -24 5 -4 30 -38 55
-76 33 -51 42 -73 34 -81 -6 -6 -11 -24 -11 -40 0 -24 3 -27 19 -22 15 5 24
-1 35 -24 9 -17 16 -35 16 -41 0 -17 -28 -11 -43 10 -14 20 -15 21 -76 4 -60
-17 -64 -17 -97 1 l-35 19 -111 -33 c-66 -19 -124 -43 -145 -59 -44 -35 -75
-94 -73 -140 1 -21 1 -41 0 -47 -9 -44 29 -201 70 -292 31 -69 70 -123 135
-189 49 -50 166 -104 223 -104 22 0 78 -9 124 -19 117 -28 207 -31 221 -9 9
14 6 23 -17 47 l-28 29 42 -14 c24 -8 49 -13 56 -10 7 3 14 0 16 -6 5 -15 48
0 48 17 0 8 -18 19 -42 25 -67 17 -119 39 -170 73 -52 33 -60 47 -28 47 31 0
26 36 -7 44 -28 8 -112 62 -114 74 -4 36 -9 55 -28 109 -21 63 -26 108 -15
137 8 20 53 21 81 1 15 -11 28 -13 45 -6 13 5 42 14 64 20 90 24 142 179 95
283 -11 24 -22 50 -25 58 -18 50 -97 160 -115 160 -6 0 -11 6 -11 13 0 8 -9
22 -20 32 -26 24 -54 109 -45 143 3 15 18 39 31 53 23 24 29 26 65 17 33 -9
39 -14 39 -37 0 -15 -5 -32 -12 -39 -9 -9 -8 -15 8 -26 38 -28 74 -28 108 0
17 15 35 33 39 40 11 20 -9 51 -43 69 -17 9 -30 19 -30 24 0 5 -14 22 -31 39
-35 35 -109 58 -121 39 -6 -9 -8 -9 -8 1 0 12 -10 13 -42 5z"/>
<path d="M2316 5284 c-3 -9 -6 -27 -6 -41 0 -13 -20 -75 -44 -136 -24 -62 -54
-140 -65 -174 -12 -35 -32 -82 -46 -105 -14 -24 -37 -68 -51 -98 -14 -30 -41
-88 -60 -129 -42 -91 -53 -148 -30 -157 11 -4 16 -18 16 -43 0 -20 7 -47 16
-59 9 -13 17 -44 19 -70 1 -26 9 -65 18 -87 8 -22 21 -85 28 -140 6 -55 13
-111 15 -123 4 -33 10 -37 40 -23 26 12 26 12 21 97 -3 47 -8 88 -11 91 -3 3
1 21 9 40 20 48 19 72 -6 118 -12 23 -23 64 -24 96 -2 31 -5 60 -6 65 -1 5 -1
11 0 14 1 3 4 28 6 55 15 183 71 440 120 550 43 96 75 213 68 249 -6 29 -18
34 -27 10z"/>
<path d="M833 5149 c-9 -11 -8 -24 7 -57 11 -23 24 -42 30 -42 5 0 10 -6 10
-13 0 -25 233 -222 251 -212 5 4 9 1 9 -5 0 -6 44 -32 98 -58 84 -39 105 -46
157 -45 33 1 105 -9 160 -23 125 -29 257 -46 269 -34 5 6 8 12 5 14 -3 3 -61
17 -129 31 -213 45 -270 63 -446 142 -173 77 -317 184 -389 287 -17 24 -22 26
-32 15z"/>
<path d="M712 5060 c-9 -23 -23 -117 -37 -245 -3 -27 -10 -75 -15 -105 -5 -30
-12 -93 -15 -140 -9 -126 -42 -251 -81 -312 -54 -86 -73 -130 -67 -159 4 -20
-3 -35 -27 -62 -28 -32 -30 -38 -15 -43 33 -13 133 117 215 280 24 48 46 83
48 77 6 -18 32 -12 33 7 5 95 10 153 17 219 9 77 0 211 -15 235 -4 7 -9 64
-11 127 -3 123 -14 165 -30 121z"/>
<path d="M1271 4441 c-8 -5 -11 -16 -8 -24 4 -10 -1 -18 -14 -22 -23 -8 -24
-14 -2 -57 9 -18 20 -41 25 -51 22 -46 102 -193 107 -197 4 -3 64 -121 134
-262 71 -142 132 -258 136 -258 4 0 7 -10 8 -21 1 -12 11 -30 22 -41 12 -10
21 -25 21 -33 0 -7 8 -16 18 -19 10 -3 18 -16 19 -27 5 -59 38 -22 46 53 5 42
1 67 -24 137 -42 120 -57 177 -70 279 -12 87 -12 90 11 123 13 19 28 37 33 40
18 12 -1 41 -22 34 -11 -3 -23 0 -28 7 -4 8 -33 31 -63 52 -71 51 -151 122
-247 219 -42 42 -79 77 -82 77 -3 0 -12 -4 -20 -9z"/>
<path d="M2800 4139 c-66 -23 -114 -59 -147 -112 -78 -124 -94 -227 -59 -375
3 -13 15 -39 27 -58 20 -34 21 -36 3 -48 -17 -13 -17 -15 -1 -30 9 -9 20 -23
24 -31 5 -7 29 -24 55 -38 27 -14 42 -28 35 -30 -6 -3 -2 -6 10 -6 30 -1 50
-69 34 -121 -11 -37 -74 -92 -141 -123 -64 -29 -71 -27 -91 28 -9 28 -18 59
-18 71 -1 11 -10 39 -21 62 -118 244 -144 513 -65 672 30 61 39 90 26 90 -18
0 -70 -81 -86 -133 -8 -28 -24 -59 -35 -69 -11 -10 -21 -33 -21 -51 -1 -18 -3
-45 -5 -62 -2 -16 -7 -68 -12 -115 l-9 -85 -2 80 c-1 76 16 201 38 272 12 41
-2 52 -19 15 -35 -77 -58 -183 -60 -278 -2 -164 -1 -184 21 -314 12 -69 22
-145 24 -170 4 -93 74 -255 167 -387 32 -46 70 -106 84 -133 16 -30 32 -49 39
-46 15 5 58 -53 105 -142 23 -43 38 -62 49 -60 9 2 15 11 15 20 -1 9 5 19 13
22 8 3 12 2 9 -2 -3 -5 9 -21 25 -36 17 -16 42 -52 56 -80 30 -60 55 -86 83
-86 27 0 25 7 -10 40 -29 27 -40 60 -20 60 6 0 13 -7 16 -15 4 -8 10 -12 15
-9 13 8 -19 51 -41 57 -14 3 -20 14 -20 31 0 14 -4 26 -10 26 -6 0 -6 10 1 27
8 21 6 37 -11 74 -18 43 -20 68 -20 244 l0 196 31 65 c20 42 50 81 86 114 65
59 96 64 101 15 2 -16 12 -38 23 -48 10 -10 19 -22 19 -27 0 -14 37 -12 47 3
4 6 8 55 9 107 1 52 4 122 8 155 9 96 7 130 -14 171 -28 58 -86 108 -178 154
-79 40 -86 41 -160 38 l-77 -3 -18 37 c-10 20 -21 68 -24 105 -5 57 -2 76 15
110 33 63 58 75 302 135 30 8 54 19 53 25 -1 5 9 9 23 7 14 -1 23 0 20 4 -4 3
-64 7 -135 8 -103 1 -139 -2 -181 -17z"/>
<path d="M466 3873 c-16 -16 -1 -41 44 -73 27 -19 49 -38 50 -42 0 -5 5 -8 10
-8 15 0 66 -44 153 -135 65 -67 77 -84 73 -106 -4 -19 2 -32 22 -50 41 -36
132 -146 218 -262 41 -56 80 -109 87 -117 7 -8 21 -29 31 -45 11 -17 25 -34
33 -38 7 -4 13 -14 13 -22 0 -7 3 -15 8 -17 11 -4 115 -136 197 -248 38 -52
72 -97 75 -100 3 -3 10 -13 15 -22 6 -9 44 -66 86 -125 41 -59 97 -144 123
-188 27 -44 52 -81 57 -83 5 -2 9 -8 9 -14 0 -5 23 -48 50 -95 28 -47 50 -89
50 -93 0 -5 3 -10 8 -12 4 -2 42 -74 86 -160 52 -105 84 -158 95 -159 10 0 11
-2 4 -6 -10 -3 -10 -10 -2 -24 5 -11 13 -17 17 -15 5 3 8 -4 9 -14 1 -10 9
-39 18 -65 15 -45 14 -49 -5 -80 -33 -54 -117 -125 -183 -155 -102 -46 -328
-84 -428 -72 -24 2 -54 -4 -84 -17 -26 -12 -56 -21 -67 -21 -10 0 -22 -8 -25
-17 -4 -10 -28 -42 -55 -71 -52 -58 -69 -90 -93 -167 -23 -76 -19 -118 17
-193 43 -88 115 -160 202 -202 38 -18 79 -43 90 -55 39 -42 216 -71 216 -35 0
13 -67 43 -79 35 -7 -4 -8 0 -5 10 4 9 -2 29 -14 45 -35 46 -62 99 -62 119 0
18 58 75 115 114 14 11 24 25 21 32 -6 17 30 50 78 70 54 23 164 19 193 -7 11
-11 29 -18 40 -16 10 2 23 -3 29 -11 19 -25 32 -4 26 45 -5 50 11 112 41 159
33 50 130 145 167 165 19 10 47 29 62 43 24 22 27 30 18 52 -6 15 -8 30 -5 35
3 5 1 11 -5 15 -6 4 -7 13 -1 23 4 9 11 36 14 59 7 55 46 140 86 185 33 37 53
98 32 98 -6 0 -29 -11 -51 -25 -22 -14 -43 -25 -47 -25 -5 -1 -24 -14 -43 -30
-19 -17 -44 -30 -55 -30 -12 0 -26 -5 -33 -12 -19 -19 -22 -5 -12 58 6 32 10
94 10 137 0 42 2 77 5 77 3 0 22 -10 43 -23 20 -13 46 -27 57 -31 65 -26 133
-6 158 47 l15 31 15 -35 c8 -18 33 -75 56 -126 23 -50 41 -103 41 -117 0 -69
-105 -261 -187 -342 -49 -48 -67 -84 -42 -84 6 0 -8 -15 -32 -33 -55 -42 -69
-64 -49 -77 9 -6 20 -5 30 4 8 7 33 22 55 33 22 11 62 32 89 48 70 41 140 40
221 -3 74 -38 146 -107 185 -175 16 -29 30 -48 30 -43 0 5 7 2 16 -5 20 -17
94 -165 94 -189 0 -10 -16 -32 -37 -50 -30 -26 -42 -31 -69 -27 -44 7 -122 62
-137 95 -6 15 -22 45 -36 67 -13 22 -23 40 -21 40 2 0 -7 19 -19 42 -11 23
-21 57 -22 75 0 18 -6 49 -13 68 -12 33 -15 35 -62 36 -84 2 -144 -30 -144
-77 0 -11 22 -47 48 -82 69 -89 161 -234 212 -337 13 -25 25 -47 29 -50 3 -3
8 -14 9 -25 2 -11 10 -32 18 -47 40 -78 76 -236 63 -280 -10 -35 -5 -48 18
-48 9 0 22 -8 29 -17 12 -17 14 -17 46 1 39 23 54 42 62 76 3 14 15 36 26 50
l20 25 0 -37 c0 -27 4 -38 15 -38 8 0 15 9 15 20 0 36 41 110 79 141 94 79
235 121 345 105 40 -6 46 -10 46 -32 0 -27 11 -30 43 -12 12 7 34 11 50 9 33
-3 37 22 7 41 -11 7 -20 18 -20 24 0 33 208 165 282 178 25 5 39 13 44 28 8
27 -12 39 -54 32 -26 -5 -31 -3 -26 9 6 16 -22 37 -49 37 -9 0 -34 12 -57 27
-29 19 -40 33 -37 45 7 24 -10 33 -30 16 -15 -12 -16 -10 -9 15 6 25 -1 36
-61 98 -50 52 -64 72 -54 78 19 12 13 22 -42 80 -27 28 -46 51 -42 51 3 0 -5
19 -19 43 -14 23 -37 65 -51 92 -15 28 -32 55 -37 62 -28 35 -78 128 -78 145
0 13 -6 18 -17 16 -52 -10 -7 -256 80 -438 69 -143 165 -269 247 -321 23 -15
24 -17 8 -41 -9 -14 -33 -33 -54 -43 -42 -20 -92 -13 -173 22 -49 21 -55 36
-52 130 1 45 -3 84 -13 107 -13 31 -20 36 -48 36 -18 0 -45 -7 -60 -14 -24
-13 -28 -13 -28 0 0 25 -39 16 -46 -11 -6 -24 -31 -45 -52 -45 -14 0 -69 148
-93 249 -31 129 -8 229 74 315 26 28 47 59 47 68 0 22 -2 22 -52 -2 -66 -32
-132 -27 -204 15 -56 33 -114 88 -114 108 0 5 -13 26 -28 46 -46 58 -46 59 -6
76 47 19 111 19 159 -1 49 -20 219 -64 249 -64 16 0 32 11 46 30 12 16 30 30
40 30 10 0 22 5 25 10 10 16 76 47 116 54 57 10 171 9 200 -3 15 -5 37 -20 51
-33 53 -52 58 -53 58 -20 0 17 -6 37 -13 44 -94 94 -5 201 178 215 69 5 77 4
119 -23 34 -22 49 -39 60 -70 8 -25 10 -47 5 -55 -15 -23 -10 -49 9 -49 51 0
86 137 86 335 0 116 -16 157 -82 217 -60 55 -139 81 -257 86 -85 4 -95 6 -65
14 19 5 69 10 110 11 129 4 129 34 0 36 -176 3 -420 -91 -489 -188 -31 -43
-63 -131 -48 -131 6 0 20 20 30 44 22 53 86 115 154 149 58 29 179 70 193 65
11 -3 -46 -34 -118 -64 -46 -19 -93 -70 -109 -118 -5 -16 -17 -30 -28 -32 -10
-1 -52 -38 -94 -81 -95 -99 -256 -220 -341 -257 -36 -16 -73 -37 -83 -47 -15
-16 -33 -19 -112 -19 -88 0 -118 -9 -79 -24 14 -5 12 -9 -7 -26 -24 -19 -24
-19 -42 3 -75 93 -134 199 -201 363 -124 302 -136 329 -150 339 -7 6 -17 25
-20 43 -7 28 -15 36 -37 34 -3 -1 -5 9 -5 21 1 15 -4 21 -15 19 -11 -1 -35 25
-70 80 -190 289 -219 327 -219 286 0 -20 54 -148 87 -203 16 -27 44 -84 62
-125 29 -64 34 -88 36 -163 2 -48 5 -91 8 -94 8 -7 -19 -72 -40 -95 -31 -34
-56 -22 -149 75 -111 115 -122 129 -173 213 -77 129 -277 394 -309 410 -12 6
-20 13 -17 16 13 13 -373 377 -575 542 -19 16 -72 63 -116 105 -45 42 -104 86
-130 99 -27 13 -65 32 -85 42 -20 11 -39 16 -43 13z m2981 -2819 c-3 -3 -12
-4 -19 -1 -8 3 -5 6 6 6 11 1 17 -2 13 -5z m-182 -94 c3 -6 -1 -7 -9 -4 -18 7
-21 14 -7 14 6 0 13 -4 16 -10z m-1830 -390 c3 -6 -1 -7 -9 -4 -18 7 -21 14
-7 14 6 0 13 -4 16 -10z m1835 -74 c0 -2 -7 -7 -16 -10 -8 -3 -12 -2 -9 4 6
10 25 14 25 6z m-426 -72 c3 -8 2 -12 -4 -9 -6 3 -10 10 -10 16 0 14 7 11 14
-7z"/>
<path d="M2975 2310 c-3 -5 -1 -10 4 -10 6 0 11 5 11 10 0 6 -2 10 -4 10 -3 0
-8 -4 -11 -10z"/>
</g>
</svg>
