<?xml version="1.0" standalone="no"?>
<!DOCTYPE svg PUBLIC "-//W3C//DTD SVG 20010904//EN"
 "http://www.w3.org/TR/2001/REC-SVG-20010904/DTD/svg10.dtd">
<svg version="1.0" xmlns="http://www.w3.org/2000/svg"
 width="40px" height="40px" viewBox="0 0 367.000000 361.000000"
 preserveAspectRatio="xMidYMid meet">

<g transform="translate(0.000000,361.000000) scale(0.100000,-0.100000)"
fill="white" stroke="none">
<path d="M680 3523 c-36 -8 -66 -19 -68 -24 -2 -5 -10 -9 -17 -9 -36 0 -125
-81 -125 -113 0 -9 -12 -25 -27 -37 -16 -12 -28 -27 -28 -33 0 -7 -7 -11 -16
-10 -9 2 -20 -10 -28 -32 -7 -19 -16 -35 -20 -35 -10 0 -90 -104 -112 -145 -9
-16 -19 -43 -23 -60 -4 -16 -13 -43 -20 -60 -62 -144 -98 -240 -110 -295 -22
-96 -38 -254 -26 -258 6 -2 6 -11 -1 -23 -6 -12 -7 -25 -2 -32 5 -7 9 -31 8
-55 -1 -24 2 -45 7 -48 4 -3 8 -10 8 -15 0 -6 -4 -7 -10 -4 -6 3 -7 -1 -4 -10
4 -11 10 -12 18 -6 8 7 11 32 8 72 -5 81 6 165 24 183 10 11 11 15 1 19 -9 4
-9 7 0 18 7 7 13 20 13 29 0 8 14 44 32 80 31 63 32 64 36 33 2 -20 9 -33 17
-33 16 0 36 61 28 88 -2 11 5 39 17 64 16 34 37 55 87 89 74 49 164 89 200 89
13 0 26 7 29 15 4 9 19 15 35 15 29 0 41 22 19 35 -5 3 -10 11 -10 16 0 6 4 8
9 5 5 -3 23 18 39 47 16 29 42 68 57 86 58 69 275 191 301 170 8 -7 32 -8 61
-4 27 3 70 1 97 -5 34 -7 52 -7 61 0 7 6 20 7 29 4 13 -5 14 -9 5 -20 -9 -11
-7 -14 14 -14 13 0 30 -6 36 -14 7 -8 24 -17 38 -21 15 -3 32 -12 37 -20 6 -7
44 -30 84 -51 40 -21 80 -45 90 -54 10 -9 23 -15 30 -12 6 2 12 -4 12 -12 0
-9 11 -21 24 -26 13 -5 27 -13 30 -19 3 -5 20 -13 37 -16 23 -5 28 -9 18 -16
-8 -5 -11 -9 -6 -10 46 -9 69 -22 78 -45 11 -31 29 -22 29 15 0 46 -89 149
-125 143 -17 -3 -17 -1 -5 8 13 9 12 12 -4 25 -11 8 -29 15 -40 15 -10 0 -17
3 -13 6 7 7 -9 25 -38 42 -11 6 -15 12 -9 12 5 0 30 -12 55 -27 27 -17 55 -27
71 -25 25 3 26 5 15 23 -7 11 -38 36 -69 55 -32 20 -58 40 -58 46 0 6 -3 8 -6
5 -4 -4 -20 5 -37 19 -26 22 -95 57 -192 99 -57 24 -197 65 -206 59 -5 -3 -15
-2 -21 3 -50 32 -353 42 -468 16z m400 -49 c7 -7 -14 -8 -55 -3 -85 9 -99 22
-17 16 35 -2 67 -8 72 -13z m-390 -2 c0 -5 -40 -30 -90 -56 -95 -50 -120 -48
-45 4 60 41 135 70 135 52z m-190 -96 c0 -3 -4 -8 -10 -11 -5 -3 -10 -1 -10 4
0 6 5 11 10 11 6 0 10 -2 10 -4z"/>
<path d="M2633 3355 c-39 -7 -77 -16 -84 -21 -7 -4 -58 -11 -113 -15 -109 -8
-120 -10 -182 -27 -74 -21 -162 -91 -195 -154 -10 -20 -25 -41 -33 -45 -20
-11 -66 -94 -66 -118 1 -19 1 -19 14 -2 16 20 48 23 40 3 -3 -7 2 -16 10 -19
14 -6 113 80 109 94 -1 4 6 5 17 2 22 -6 119 15 137 29 14 12 36 1 27 -13 -4
-7 7 -8 31 -3 27 5 36 4 31 -5 -4 -6 -13 -11 -20 -11 -15 0 -86 -74 -86 -90 0
-15 6 -13 64 26 46 30 61 35 98 32 46 -5 112 -31 123 -48 5 -8 -5 -9 -32 -3
-101 20 -241 -14 -290 -71 -53 -63 -61 -71 -88 -90 -37 -26 -19 -44 30 -29 20
6 35 7 35 2 0 -5 -6 -9 -14 -9 -17 0 -31 -18 -22 -27 9 -10 46 28 46 47 0 10
8 21 18 25 33 14 145 14 177 0 44 -18 115 -29 115 -17 0 30 -89 72 -175 82
-59 6 -60 7 -30 19 17 7 51 15 76 18 71 8 148 -36 266 -154 35 -35 68 -63 74
-63 5 0 8 -4 4 -9 -7 -13 15 -61 29 -61 10 0 68 -109 72 -136 1 -6 5 -21 8
-32 4 -11 2 -23 -4 -27 -5 -3 -10 0 -10 8 0 7 -16 30 -36 50 -20 19 -33 40
-29 46 3 6 2 11 -2 11 -5 0 -13 10 -18 23 -6 12 -17 22 -25 23 -8 0 -22 4 -30
7 -80 31 -244 46 -311 27 -41 -12 -122 -88 -140 -134 -16 -40 -44 -77 -53 -69
-3 3 -6 24 -6 46 0 30 9 50 38 88 20 26 43 48 50 49 7 0 15 6 18 14 11 29 95
54 191 58 51 1 92 7 90 12 -2 5 -12 10 -23 12 -10 1 -44 5 -75 9 -64 8 -148
-11 -208 -49 -36 -23 -97 -91 -119 -133 -21 -39 -14 -100 18 -156 21 -37 30
-67 30 -98 0 -82 11 -118 51 -162 29 -34 37 -50 34 -73 -4 -35 10 -81 47 -149
24 -45 25 -53 13 -81 -7 -17 -20 -34 -30 -38 -40 -15 -105 1 -105 27 0 21 -14
35 -42 42 -20 5 -27 3 -32 -12 -3 -10 -19 -26 -36 -35 -35 -20 -39 -51 -14
-104 26 -55 28 -56 139 -54 44 0 116 25 155 53 19 13 25 27 27 60 1 23 5 80 9
127 8 105 8 116 2 162 -5 39 -44 89 -64 81 -14 -5 -33 26 -27 44 2 6 -1 14 -6
18 -6 3 -11 28 -11 55 0 45 3 51 41 81 l42 33 -27 -42 c-49 -78 -22 -117 28
-41 26 39 29 41 69 35 83 -10 117 -18 117 -27 0 -5 6 -6 13 -3 14 5 77 -109
77 -140 0 -9 7 -16 15 -16 18 0 20 16 3 23 -9 4 -10 8 -2 14 6 4 13 15 16 23
9 26 29 -60 34 -145 6 -90 -22 -222 -50 -237 -9 -5 -32 -30 -51 -55 -19 -25
-35 -44 -35 -41 0 6 33 85 61 144 10 22 18 58 18 80 -1 23 -3 30 -6 16 -2 -12
-9 -20 -14 -17 -5 4 -9 0 -9 -7 0 -7 -11 -35 -25 -63 -13 -27 -25 -53 -25 -57
0 -16 -123 -210 -136 -215 -14 -5 -19 -35 -8 -46 3 -3 17 -2 30 3 23 9 24 9
12 -14 -7 -13 -36 -49 -65 -81 -39 -43 -57 -56 -72 -52 -11 3 -28 -3 -40 -14
-11 -11 -25 -19 -30 -19 -6 0 -15 -9 -21 -20 -6 -10 -43 -40 -82 -66 l-72 -46
-40 45 c-23 24 -48 46 -56 49 -23 8 -60 99 -60 146 0 11 -4 24 -10 27 -5 3
-10 15 -10 25 0 10 -14 32 -31 48 -27 25 -31 36 -31 80 0 42 -4 51 -21 56 -23
6 -37 0 -37 -16 0 -6 7 -5 17 3 11 9 8 -2 -10 -31 -15 -25 -55 -101 -89 -170
-35 -69 -75 -138 -90 -155 -16 -16 -31 -38 -34 -48 -6 -18 -30 -18 -96 0 -29
9 -118 86 -118 102 0 6 12 11 27 11 26 0 27 1 9 18 -13 12 -20 14 -23 5 -9
-24 -30 -13 -59 30 -16 23 -32 45 -37 48 -12 9 -98 -15 -93 -26 2 -6 -2 -22
-9 -35 l-12 -23 -19 23 c-11 12 -37 41 -59 63 -22 22 -39 46 -37 52 1 7 -5 18
-13 25 -15 12 -22 81 -7 79 19 -3 23 2 12 16 -10 12 -8 16 11 24 l24 9 -28 11
c-16 6 -32 9 -37 6 -10 -6 -32 54 -24 66 3 5 1 9 -3 9 -5 0 -13 8 -18 19 -95
181 -113 239 -101 334 4 31 13 63 19 70 22 24 38 57 27 57 -15 0 24 71 54 99
14 13 24 27 21 30 -2 4 5 8 17 8 13 1 18 -3 15 -11 -3 -8 -1 -18 4 -23 6 -6
24 5 49 28 22 21 57 43 79 50 34 10 46 8 105 -15 65 -26 106 -27 106 -3 0 7 5
4 11 -5 5 -10 16 -18 23 -18 23 0 33 -74 20 -152 -7 -43 12 -33 28 15 38 112
12 243 -62 307 -22 19 -40 40 -40 47 0 7 -10 18 -22 24 -13 7 -27 18 -31 26
-5 7 -13 10 -19 7 -6 -4 -13 -2 -17 3 -8 13 -119 49 -209 67 -41 8 -76 17 -79
19 -4 4 48 11 142 19 39 4 134 -30 188 -66 34 -23 43 -16 25 20 -10 21 -28 33
-70 47 -32 11 -58 24 -58 30 0 13 116 -1 151 -18 27 -15 109 -103 109 -118 0
-5 16 -27 35 -50 19 -22 35 -47 35 -54 0 -15 16 -18 24 -4 10 15 -6 71 -19 71
-8 0 -10 9 -7 25 2 14 0 25 -6 25 -12 0 -26 56 -23 89 2 19 -1 22 -16 17 -13
-5 -26 3 -50 31 -39 45 -41 55 -9 40 13 -7 22 -15 20 -19 -2 -3 0 -9 5 -12 5
-3 11 1 15 9 3 8 -3 19 -12 24 -9 6 -13 11 -8 11 4 0 1 11 -8 25 -19 29 -7 32
30 9 23 -16 50 -11 29 4 -6 4 -15 16 -21 27 -18 32 -99 57 -209 64 l-100 6 50
12 c59 14 137 2 207 -31 28 -14 52 -19 60 -14 12 7 4 12 -14 9 -4 0 -17 13
-30 29 -50 68 -189 80 -302 26 -44 -21 -67 -26 -92 -21 -54 10 -153 -14 -184
-44 -15 -14 -25 -31 -23 -36 2 -6 -26 -30 -62 -54 -147 -98 -325 -285 -370
-390 -16 -36 -20 -137 -6 -145 4 -3 11 -58 14 -123 7 -125 28 -212 69 -280 26
-42 53 -118 63 -176 l6 -38 -48 35 c-47 33 -147 133 -188 187 -11 14 -28 28
-37 32 -15 5 -64 95 -56 102 2 1 14 8 28 16 l25 13 -25 6 c-57 15 -72 -17 -53
-108 7 -35 22 -75 33 -89 15 -20 17 -28 8 -43 -10 -15 -7 -25 14 -57 29 -42
65 -81 121 -131 38 -33 67 -55 192 -141 39 -27 77 -57 85 -67 8 -9 49 -44 90
-77 73 -58 95 -78 291 -259 138 -127 169 -158 169 -169 0 -6 -4 -8 -9 -4 -6 3
-9 -4 -8 -16 1 -13 17 -32 42 -47 93 -60 144 -106 269 -245 44 -48 85 -87 92
-87 21 0 114 -116 146 -182 31 -65 35 -78 45 -142 4 -24 12 -40 22 -43 9 -2
24 -22 34 -44 18 -41 34 -50 44 -23 3 8 12 13 20 9 12 -4 14 0 10 15 -3 11 -1
20 3 20 4 0 15 20 24 45 16 48 22 56 76 96 26 20 43 47 69 110 39 96 86 164
177 254 63 62 80 91 47 78 -14 -6 -15 -4 -5 8 7 8 24 30 37 49 35 50 142 165
273 294 61 62 112 118 112 126 0 8 24 43 53 77 29 35 74 102 100 150 62 118
132 225 141 216 4 -4 4 0 1 9 -4 10 0 31 9 48 8 17 12 38 9 46 -3 8 1 14 10
14 8 0 20 7 27 15 7 9 18 14 24 12 6 -3 23 7 39 21 15 14 27 20 27 13 0 -8 13
-5 40 10 22 13 40 29 40 36 0 8 4 12 9 8 11 -6 70 91 127 210 22 44 42 82 46
85 11 8 88 180 88 196 0 8 5 14 10 14 6 0 8 10 5 23 -2 12 -7 63 -10 112 -3
50 -8 106 -11 125 -10 63 -46 165 -62 178 -9 6 -13 12 -9 12 9 0 -36 84 -71
133 -47 64 -240 182 -372 226 -36 12 -90 35 -122 51 -31 16 -76 32 -100 35
-23 3 -54 7 -68 9 -14 2 -57 -2 -97 -9z m-53 -131 c0 -8 -12 -12 -30 -12 -25
1 -27 3 -14 13 22 15 44 15 44 -1z m113 -70 c21 -3 51 -1 67 6 26 11 33 8 91
-32 34 -23 68 -47 77 -53 34 -22 118 -113 137 -148 18 -34 18 -37 2 -55 -21
-23 -21 -27 0 -52 11 -12 24 -17 38 -14 39 10 129 -52 150 -102 8 -19 21 -37
30 -40 8 -3 15 -11 15 -17 0 -6 6 -18 13 -26 15 -17 39 -81 56 -145 17 -66
-28 -221 -78 -263 -19 -16 -23 -25 -14 -31 9 -6 2 -25 -28 -72 -22 -36 -48
-78 -57 -93 -9 -15 -27 -30 -38 -33 -20 -5 -74 -94 -74 -122 0 -6 -3 -12 -7
-12 -5 0 -8 44 -8 98 -1 68 -6 111 -19 143 l-18 46 30 59 c17 33 33 81 37 107
8 52 -12 244 -26 253 -5 3 -9 16 -9 29 0 27 -28 42 -37 19 -3 -8 2 -23 11 -33
20 -22 21 -32 2 -25 -11 4 -13 -3 -10 -38 2 -24 1 -36 -2 -28 -11 28 -99 205
-104 210 -3 3 -14 22 -25 42 -57 104 -153 247 -189 281 -26 24 -61 44 -96 54
-30 8 -72 24 -92 34 -31 16 -88 26 -157 29 -26 0 9 29 42 33 39 5 237 -1 290
-9z m317 -14 c8 -5 12 -12 9 -15 -8 -8 -39 5 -39 16 0 11 11 11 30 -1z m-1746
-211 c36 -12 72 -29 81 -39 14 -15 11 -16 -45 -13 -33 2 -88 -4 -122 -12 -82
-21 -188 -43 -241 -50 -23 -3 -50 -8 -59 -11 -24 -7 -23 1 5 27 31 30 151 83
222 99 33 7 65 14 70 15 19 6 25 5 89 -16z m1404 2 c12 -11 22 -24 22 -29 0
-5 15 -25 33 -43 43 -43 113 -163 138 -236 25 -74 25 -96 -1 -63 -11 14 -20
30 -20 36 0 6 -16 29 -36 52 -19 23 -32 42 -27 42 4 0 -5 11 -20 25 -15 14
-27 31 -27 38 0 7 -27 38 -59 70 -60 57 -67 91 -10 42 42 -35 48 -24 12 22
-51 66 -53 83 -5 44z m-1858 -131 c0 -6 -12 -15 -26 -20 -34 -13 -55 -11 -26
2 12 6 22 15 22 20 0 4 7 8 15 8 8 0 15 -5 15 -10z m315 -136 c38 -9 74 -17
80 -18 5 -1 20 -8 33 -15 17 -9 27 -9 36 -2 10 8 12 5 11 -11 -2 -25 -18 -33
-43 -22 -9 4 -21 6 -25 5 -5 -1 -7 4 -5 11 6 16 -87 35 -213 44 -173 13 -237
-32 -352 -249 -42 -79 -77 -151 -77 -160 0 -9 -3 -18 -7 -20 -5 -3 -7 57 -6
133 2 139 5 153 48 231 8 15 21 31 27 37 25 20 117 51 170 57 29 4 54 7 55 9
7 6 209 -16 268 -30z m1290 -121 c-16 -8 -37 -21 -45 -28 -8 -7 -23 -10 -33
-6 -16 6 -17 9 -5 19 13 10 75 29 103 31 6 0 -3 -7 -20 -16z m485 -34 c0 -18
-2 -19 -15 -9 -15 12 -12 30 6 30 5 0 9 -10 9 -21z m-1789 -14 c0 -6 -11 -12
-23 -13 -13 -2 -38 -15 -56 -29 -18 -14 -35 -23 -38 -21 -7 8 39 50 70 64 34
14 48 14 47 -1z m1447 -142 c51 -24 27 -27 -33 -3 -35 13 -43 19 -27 20 13 0
40 -8 60 -17z m-1932 -119 c-4 -9 -9 -15 -11 -12 -3 3 -3 13 1 22 4 9 9 15 11
12 3 -3 3 -13 -1 -22z m2074 -14 c0 -5 -2 -10 -4 -10 -3 0 -8 5 -11 10 -3 6
-1 10 4 10 6 0 11 -4 11 -10z m-2192 -46 c-4 -3 -2 -19 3 -37 5 -17 5 -26 0
-21 -15 16 -22 64 -10 64 7 0 10 -3 7 -6z m1846 -130 c9 -24 7 -28 -9 -14 -17
14 -20 30 -6 30 5 0 12 -7 15 -16z m-2034 -178 c0 -6 -7 -1 -15 10 -8 10 -15
23 -15 28 0 6 7 1 15 -10 8 -10 15 -23 15 -28z m2070 -110 c0 -2 -11 -11 -25
-20 -14 -9 -25 -13 -25 -8 0 5 10 14 23 20 27 13 27 13 27 8z m479 -68 c-6
-25 -19 -54 -29 -63 -18 -16 -18 -15 -5 22 37 107 51 124 34 41z m-1864 -17
c-8 -8 -35 22 -35 38 0 12 5 10 20 -9 10 -14 17 -27 15 -29z m1270 29 c-3 -5
-16 -10 -28 -9 -21 0 -21 1 -2 9 28 12 37 12 30 0z m-955 -294 c29 -51 78
-103 93 -98 4 1 7 -4 7 -11 0 -16 37 -51 65 -61 16 -6 17 -9 5 -16 -23 -15
-30 -12 -40 14 -7 19 -14 23 -31 19 -18 -5 -21 -3 -16 10 4 10 3 17 -1 18 -61
6 -99 31 -108 72 -3 18 -10 37 -14 42 -7 9 -14 49 -11 68 2 17 23 -6 51 -57z
m1420 41 c0 -15 -68 -87 -82 -87 -14 0 19 51 51 77 31 27 31 27 31 10z m-430
-170 c0 -15 -20 -37 -34 -37 -5 0 -2 6 9 13 10 8 15 19 11 25 -4 7 -2 12 3 12
6 0 11 -6 11 -13z m-105 -47 c-3 -5 -11 -10 -16 -10 -6 0 -7 5 -4 10 3 6 11
10 16 10 6 0 7 -4 4 -10z m-800 -50 c3 -5 17 -10 31 -10 28 0 32 -16 5 -23
-21 -5 -29 -1 -50 26 -8 10 -9 17 -3 17 6 0 14 -4 17 -10z m454 -112 c14 -46
63 -123 83 -132 8 -3 -3 -20 -32 -46 -45 -41 -77 -49 -72 -17 3 19 -45 53 -90
62 -15 4 -30 10 -33 15 -5 7 34 61 103 140 23 28 27 26 41 -22z m39 -422 c-3
-34 -8 -41 -33 -48 -58 -15 -106 50 -72 97 12 15 18 17 29 7 12 -9 19 -9 34 3
17 12 21 12 32 -3 7 -9 12 -34 10 -56z m2 -96 c0 -5 -8 -10 -17 -10 -15 0 -16
2 -3 10 19 12 20 12 20 0z"/>
<path d="M2897 2783 c-4 -6 0 -19 8 -29 13 -16 16 -17 24 -4 7 10 7 16 -2 19
-7 2 -15 8 -18 14 -4 6 -9 6 -12 0z"/>
<path d="M2970 2740 c0 -5 5 -10 10 -10 6 0 10 5 10 10 0 6 -4 10 -10 10 -5 0
-10 -4 -10 -10z"/>
<path d="M2990 2706 c0 -2 7 -7 16 -10 8 -3 12 -2 9 4 -6 10 -25 14 -25 6z"/>
<path d="M3007 2654 c-4 -4 -4 -10 -1 -15 6 -10 34 0 34 12 0 10 -24 12 -33 3z"/>
<path d="M1520 2980 c0 -5 5 -10 11 -10 5 0 7 5 4 10 -3 6 -8 10 -11 10 -2 0
-4 -4 -4 -10z"/>
<path d="M1847 2832 c-10 -10 -17 -29 -17 -42 0 -13 -9 -33 -19 -44 -62 -68
-86 -168 -54 -226 26 -47 57 -62 118 -57 41 4 54 10 76 36 22 27 27 45 32 109
6 87 -11 140 -51 157 -13 6 -25 21 -28 35 -10 44 -13 50 -27 50 -8 0 -21 -8
-30 -18z"/>
<path d="M157 2390 c-3 -11 -1 -20 4 -20 5 0 9 9 9 20 0 11 -2 20 -4 20 -2 0
-6 -9 -9 -20z"/>
<path d="M1891 2358 c-7 -14 -22 -24 -36 -24 -14 -1 -22 2 -19 7 11 19 -61 8
-100 -15 -98 -57 -164 -192 -172 -351 -5 -82 14 -122 67 -149 44 -22 208 -22
250 -1 16 9 44 15 63 13 25 -1 44 6 74 30 48 39 67 86 58 151 -22 167 -26 183
-64 232 -20 26 -43 48 -49 49 -7 0 -13 4 -13 9 0 5 -10 12 -22 14 -22 4 -22 4
2 6 30 2 65 21 39 21 -9 0 -19 7 -23 15 -8 23 -41 18 -55 -7z"/>
<path d="M1404 2195 c-21 -20 -49 -45 -62 -57 -15 -14 -43 -23 -91 -28 -38 -4
-73 -10 -79 -14 -13 -8 -42 -92 -42 -122 0 -12 -7 -38 -15 -57 -8 -20 -15 -48
-15 -62 0 -34 40 -103 64 -111 80 -26 335 60 308 104 -7 9 -21 8 -67 -8 -32
-11 -78 -20 -101 -20 -36 0 -49 6 -79 35 -19 20 -38 47 -41 62 -6 23 -1 32 32
61 21 19 75 53 119 77 70 38 80 47 78 69 -1 17 5 27 18 31 21 7 37 51 22 66
-6 6 -24 -3 -49 -26z m-174 -144 c-1 -11 -50 -42 -50 -31 0 24 21 49 35 44 8
-4 15 -9 15 -13z m-24 -268 c-3 -3 -16 6 -30 20 -14 15 -26 30 -26 36 0 5 14
-4 30 -21 17 -17 29 -33 26 -35z"/>
<path d="M90 2174 c0 -8 5 -12 10 -9 6 3 10 10 10 16 0 5 -4 9 -10 9 -5 0 -10
-7 -10 -16z"/>
<path d="M1345 1500 c-8 -13 15 -24 27 -12 6 6 4 11 -6 15 -8 3 -18 2 -21 -3z"/>
<path d="M1386 1463 c-11 -11 -6 -23 9 -23 8 0 15 4 15 9 0 13 -16 22 -24 14z"/>
<path d="M1170 1001 c0 -5 6 -13 13 -19 10 -8 13 -6 14 9 1 10 -5 19 -13 19
-8 0 -14 -4 -14 -9z"/>
<path d="M1880 115 c0 -8 2 -15 4 -15 2 0 6 7 10 15 3 8 1 15 -4 15 -6 0 -10
-7 -10 -15z"/>
</g>
</svg>
